<svg width="19" height="20" viewBox="0 0 19 20" fill="none" xmlns="http://www.w3.org/2000/svg">
<path d="M17.7529 7.68041L16.2514 6.27445L15.4735 5.58543L9.61236 0.231597C9.27091 -0.077199 8.75988 -0.077199 8.41842 0.231597L2.55727 5.58543L1.7794 6.27445L0.277936 7.68041C-0.0712763 8.0257 -0.0943974 8.59284 0.225484 8.96703C0.545365 9.34123 1.09478 9.38973 1.47187 9.07706L1.7794 8.79773V16.7586C1.7794 18.3013 2.99428 19.552 4.4929 19.552H6.3019V13.9653C6.3019 12.4226 7.51677 11.172 9.01539 11.172C10.514 11.172 11.7289 12.4226 11.7289 13.9653V19.552H13.5379C15.0365 19.552 16.2514 18.3013 16.2514 16.7586V8.79773L16.5589 9.07706C16.9337 9.41596 17.5043 9.37846 17.8343 8.99326C18.1635 8.60742 18.127 8.02004 17.7529 7.68041Z" fill="#18C0C1"/>
</svg>
