<svg width="20" height="20" viewBox="0 0 20 20" fill="none" xmlns="http://www.w3.org/2000/svg">
<path fill-rule="evenodd" clip-rule="evenodd" d="M15 5C15 2.23858 12.7614 0 10 0C7.23858 0 5 2.23858 5 5C5 7.76142 7.23858 10 10 10H9C4.02944 10 0 14.0294 0 19C0 19.5523 0.447715 20 1 20H19C19.5523 20 20 19.5523 20 19C20 14.0294 15.9706 10 11 10H10C11.3261 10 12.5979 9.47322 13.5355 8.53553C14.4732 7.59785 15 6.32608 15 5ZM9 12C5.51962 11.9991 2.5672 14.5553 2.07 18H17.93C17.4328 14.5553 14.4804 11.9991 11 12H9ZM7 5C7 6.65685 8.34315 8 10 8C10.7956 8 11.5587 7.68393 12.1213 7.12132C12.6839 6.55871 13 5.79565 13 5C13 3.34315 11.6569 2 10 2C8.34315 2 7 3.34315 7 5Z" fill="white"/>
</svg>
